# xmcd
#
# Track frame offsets:
#	150
#	23621
#	45719
#	61021
#	78055
#	96432
#	109934
#	124210
#	134372
#	150459
#	166809
#	177692
#
# Disc length: 2587 seconds
#
# Revision: 0
# Processed by: cddbd v1.5.2PL0 Copyright (c) Steve Scherf et al.
# Submitted via: EasyCDDAExtractor 10.0.6.1
#
DISCID=940a190c
DTITLE=Russell Gulley - Back To The Swamp
DYEAR=2007
DGENRE=
TTITLE0=Back To The Swamp
TTITLE1=Gospel According To The Blues
TTITLE2=Mandi'e Song (Sure Cure)
TTITLE3=Place Of Good Earth
TTITLE4=Better Off With The Blues
TTITLE5=Sand Mountain Mule
TTITLE6=Greenwood Mississippi
TTITLE7=Joliet Blues
TTITLE8=As The Crow Flies
TTITLE9=Wolves At My Door
TTITLE10=Baby Ruth
TTITLE11=My Baby Don't Wear No Drawers
EXTD=
EXTT0=
EXTT1=
EXTT2=
EXTT3=
EXTT4=
EXTT5=
EXTT6=
EXTT7=
EXTT8=
EXTT9=
EXTT10=
EXTT11=
PLAYORDER=
